<?xml version="1.0" encoding="UTF-8"?>
<!-- Sprite with simple brand icons to keep footprint minimal -->
<svg xmlns="http://www.w3.org/2000/svg" style="display:none">
  <symbol id="icon-github" viewBox="0 0 24 24" aria-hidden="true">
    <path fill="currentColor" d="M12 .5a12 12 0 0 0-3.79 23.4c.6.11.82-.26.82-.58l-.02-2.04c-3.34.73-4.04-1.61-4.04-1.61-.55-1.39-1.35-1.76-1.35-1.76-1.1-.76.08-.75.08-.75 1.21.09 1.85 1.25 1.85 1.25 1.08 1.85 2.83 1.32 3.52 1.01.11-.79.42-1.32.76-1.62-2.66-.3-5.47-1.33-5.47-5.93 0-1.31.47-2.38 1.25-3.22-.13-.31-.54-1.57.12-3.27 0 0 1.01-.32 3.3 1.23a11.44 11.44 0 0 1 6 0c2.29-1.55 3.3-1.23 3.3-1.23.66 1.7.25 2.96.12 3.27.78.84 1.25 1.91 1.25 3.22 0 4.61-2.81 5.63-5.49 5.93.43.37.82 1.1.82 2.22l-.01 3.29c0 .32.22.7.83.58A12 12 0 0 0 12 .5z"/>
  </symbol>
  <symbol id="icon-linkedin" viewBox="0 0 24 24" aria-hidden="true">
    <path fill="currentColor" d="M4.98 3.5a2.5 2.5 0 1 1-.02 5 2.5 2.5 0 0 1 .02-5zM3 8.98h3.96V21H3zM9.5 8.98H13v1.62h.05c.49-.93 1.7-1.9 3.5-1.9 3.75 0 4.45 2.47 4.45 5.67V21H17V15.4c0-1.33-.02-3.04-1.85-3.04-1.85 0-2.14 1.45-2.14 2.95V21H9.5z"/>
  </symbol>
  <symbol id="icon-mail" viewBox="0 0 24 24" aria-hidden="true">
    <path fill="currentColor" d="M20 4H4a2 2 0 0 0-2 2v.35l10 6.25L22 6.35V6a2 2 0 0 0-2-2Zm2 5.14-9.38 5.86a2 2 0 0 1-2.24 0L1 9.14V18a2 2 0 0 0 2 2h16a2 2 0 0 0 2-2V9.14Z"/>
  <symbol id="icon-download" viewBox="0 0 24 24" aria-hidden="true">
    <path fill="currentColor" d="M19 9h-4V3H9v6H5l7 7 7-7zM5 18v2h14v-2H5z"/>
  </symbol>
  </symbol>
</svg>