<?xml version="1.0" encoding="UTF-8"?>
<!-- Sprite with simple brand icons to keep footprint minimal -->
<svg xmlns="http://www.w3.org/2000/svg" style="display:none">
  <symbol id="icon-github" viewBox="0 0 24 24" aria-hidden="true">
    <path fill="currentColor" d="M12 .5a12 12 0 0 0-3.79 23.4c.6.11.82-.26.82-.58l-.02-2.04c-3.34.73-4.04-1.61-4.04-1.61-.55-1.39-1.35-1.76-1.35-1.76-1.1-.76.08-.75.08-.75 1.21.09 1.85 1.25 1.85 1.25 1.08 1.85 2.83 1.32 3.52 1.01.11-.79.42-1.32.76-1.62-2.66-.3-5.47-1.33-5.47-5.93 0-1.31.47-2.38 1.25-3.22-.13-.31-.54-1.57.12-3.27 0 0 1.01-.32 3.3 1.23a11.44 11.44 0 0 1 6 0c2.29-1.55 3.3-1.23 3.3-1.23.66 1.7.25 2.96.12 3.27.78.84 1.25 1.91 1.25 3.22 0 4.61-2.81 5.63-5.49 5.93.43.37.82 1.1.82 2.22l-.01 3.29c0 .32.22.7.83.58A12 12 0 0 0 12 .5z"/>
  </symbol>
  <symbol id="icon-linkedin" viewBox="0 0 24 24" aria-hidden="true">
    <path fill="currentColor" d="M4.98 3.5a2.5 2.5 0 1 1-.02 5 2.5 2.5 0 0 1 .02-5zM3 8.98h3.96V21H3zM9.5 8.98H13v1.62h.05c.49-.93 1.7-1.9 3.5-1.9 3.75 0 4.45 2.47 4.45 5.67V21H17V15.4c0-1.33-.02-3.04-1.85-3.04-1.85 0-2.14 1.45-2.14 2.95V21H9.5z"/>
  </symbol>
  <symbol id="icon-mail" viewBox="0 0 24 24" aria-hidden="true">
    <path fill="currentColor" d="M20 4H4a2 2 0 0 0-2 2v.35l10 6.25L22 6.35V6a2 2 0 0 0-2-2Zm2 5.14-9.38 5.86a2 2 0 0 1-2.24 0L1 9.14V18a2 2 0 0 0 2 2h16a2 2 0 0 0 2-2V9.14Z"/>
  </symbol>
  <symbol id="icon-download" viewBox="0 0 24 24" aria-hidden="true">
    <path fill="currentColor" d="M19 9h-4V3H9v6H5l7 7 7-7zM5 18v2h14v-2H5z"/>
  </symbol>
  <symbol id="icon-demo" viewBox="0 0 24 24" aria-hidden="true">
    <path fill="currentColor" d="M21 3H3c-1.1 0-2 .9-2 2v14c0 1.1.9 2 2 2h18c1.1 0 2-.9 2-2V5c0-1.1-.9-2-2-2zm0 16H3V5h18v14zM8 15c0-1.66 1.34-3 3-3 .35 0 .69.07 1 .18V6h5v2h-3v7.03c-.02 1.64-1.35 2.97-3 2.97-1.66 0-3-1.34-3-3z"/>
  </symbol>
  <symbol id="icon-docs" viewBox="0 0 24 24" aria-hidden="true">
    <path fill="currentColor" d="M14 2H6c-1.1 0-1.99.9-1.99 2L4 20c0 1.1.89 2 1.99 2H18c1.1 0 2-.9 2-2V8l-6-6zm2 16H8v-2h8v2zm0-4H8v-2h8v2zm-3-5V3.5L18.5 9H13z"/>
  </symbol>
  <symbol id="icon-npm" viewBox="0 0 24 24" aria-hidden="true">
    <path fill="currentColor" d="M0 7.334v8h6.666v1.332H12v-1.332h12v-8H0zm6.666 6.664H5.334v-4H3.999v4H1.335V8.667h5.331v5.331zm4 0v1.336H8.001V8.667h5.334v5.331zm0-2.667h-1.335v1.336h1.335v-1.336zm4.664 2.667H12v1.336h2.666v2.664h1.336v-4H12v1.336h2.666v-1.336zm4.001 0h-1.336V12h-1.335v1.334h-1.335v1.336h4.006v-2.67zm0-2.664h-4.006v1.336h1.335V8.667h1.336l.001 1.336h1.334v-1.336z"/>
  </symbol>
  <symbol id="icon-storybook" viewBox="0 0 24 24" aria-hidden="true">
    <path fill="currentColor" d="M16.71 16.29l-4-4 4-4-1.42-1.42L11 11.59l-4.29-4.3L5.29 8.71l4 4-4 4 1.42 1.42L11 12.41l4.29 4.29zM2.05 21.05h19.89c1.1 0 2-.9 2-2V4.95c0-1.1-.9-2-2-2H2.05c-1.1 0-2 .9-2 2v14.1c0 1.1.9 2 2 2zM2.05 4.95h19.89v14.1H2.05V4.95z"/>
  </symbol>
  <symbol id="icon-article" viewBox="0 0 24 24" aria-hidden="true">
    <path fill="currentColor" d="M19 3H5c-1.1 0-2 .9-2 2v14c0 1.1.9 2 2 2h14c1.1 0 2-.9 2-2V5c0-1.1-.9-2-2-2zm-5 14H7v-2h7v2zm3-4H7v-2h10v2zm0-4H7V7h10v2z"/>
  </symbol>
  <symbol id="icon-design" viewBox="0 0 24 24" aria-hidden="true">
    <path fill="currentColor" d="M12 2l3.09 6.26L22 9.27l-5 4.87 1.18 6.88L12 17.77l-6.18 3.25L7 14.14 2 9.27l6.91-1.01L12 2z"/>
  </symbol>
  <symbol id="icon-video" viewBox="0 0 24 24" aria-hidden="true">
    <path fill="currentColor" d="M17 10.5V7c0-.55-.45-1-1-1H4c-.55 0-1 .45-1 1v10c0 .55.45 1 1 1h12c.55 0 1-.45 1-1v-3.5l4 4v-11l-4 4z"/>
  </symbol>
  <symbol id="icon-case-study" viewBox="0 0 24 24" aria-hidden="true">
    <path fill="currentColor" d="M14 2H6c-1.1 0-1.99.9-1.99 2L4 20c0 1.1.89 2 1.99 2H18c1.1 0 2-.9 2-2V8l-6-6zm2 16H8v-2h8v2zm0-4H8v-2h8v2zm-3-5V3.5L18.5 9H13z"/>
  </symbol>

  <!-- External link (↗ arrow from square) — used for demo/live links -->
  <symbol id="icon-external" viewBox="0 0 24 24" aria-hidden="true">
    <path fill="currentColor" fill-rule="evenodd" d="M14 3a1 1 0 0 1 1-1h6a1 1 0 0 1 1 1v6a1 1 0 1 1-2 0V5.414l-8.293 8.293a1 1 0 0 1-1.414-1.414L18.586 4H15a1 1 0 0 1-1-1zM5 7a2 2 0 0 0-2 2v10a2 2 0 0 0 2 2h10a2 2 0 0 0 2-2v-5a1 1 0 1 0-2 0v5H5V9h5a1 1 0 0 0 0-2H5z" clip-rule="evenodd"/>
  </symbol>

  <!-- Location pin — Jakarta chip in ProfileCard -->
  <symbol id="icon-location" viewBox="0 0 24 24" aria-hidden="true">
    <path fill="currentColor" d="M12 2C8.13 2 5 5.13 5 9c0 5.25 7 13 7 13s7-7.75 7-13c0-3.87-3.13-7-7-7zm0 9.5a2.5 2.5 0 1 1 0-5 2.5 2.5 0 0 1 0 5z"/>
  </symbol>

  <!-- Globe — Remote-ready chip in ProfileCard -->
  <symbol id="icon-globe" viewBox="0 0 24 24" aria-hidden="true">
    <path fill="currentColor" d="M12 2a10 10 0 1 0 0 20A10 10 0 0 0 12 2zm-1 17.93V18c0-.55-.45-1-1-1H8a4 4 0 0 1-3.8-2.73A8.01 8.01 0 0 1 4.07 13H7c.55 0 1-.45 1-1v-1c0-.55.45-1 1-1h1c.55 0 1-.45 1-1V8l3.35 3.35c.21.21.32.5.3.79l-.1 1.2c-.05.52.34.97.86.99L17 14.4V16a2 2 0 0 1-2 2h-1c-.55 0-1 .45-1 1v.93zM19.93 12H18c-.55 0-1 .45-1 1v.5l-2-.06.06-.85A3 3 0 0 0 14.2 10L12 7.8V7c0-.55-.45-1-1-1H9.07A8.01 8.01 0 0 1 19.93 12z"/>
  </symbol>

  <!-- Medical cross — Healthcare IT chip in ProfileCard -->
  <symbol id="icon-medical" viewBox="0 0 24 24" aria-hidden="true">
    <path fill="currentColor" d="M12 2C6.48 2 2 6.48 2 12s4.48 10 10 10 10-4.48 10-10S17.52 2 12 2zm5 11h-4v4h-2v-4H7v-2h4V7h2v4h4v2z"/>
  </symbol>
</svg>
