<?xml version="1.0" encoding="UTF-8"?>
<svg width="128" height="128" viewBox="0 0 128 128" fill="none" xmlns="http://www.w3.org/2000/svg" aria-hidden="true">
  <title>Soccer Ball</title>
  <defs>
    <clipPath id="clip">
      <circle cx="64" cy="64" r="60"/>
    </clipPath>
  </defs>
  <circle cx="64" cy="64" r="60" fill="#F9F9F9" stroke="#222" stroke-width="4"/>
  <g clip-path="url(#clip)">
    <!-- Pentagons/hexagons simplified -->
    <path d="M64 34l15 10-6 18H55l-6-18 15-10z" fill="#222"/>
    <path d="M79 44l17 2 8 14-13 11-18-7 6-18z" fill="#222" opacity=".85"/>
    <path d="M49 44l-17 2-8 14 13 11 18-7-6-18z" fill="#222" opacity=".85"/>
    <path d="M55 62l-18 7 2 18 16 8 12-14-12-19z" fill="#222" opacity=".75"/>
    <path d="M73 62l18 7-2 18-16 8-12-14 12-19z" fill="#222" opacity=".75"/>
    <!-- seams -->
    <path d="M64 34v0M64 34L49 44M64 34l15 10M64 34l-9 28M64 34l9 28" stroke="#222" stroke-width="2" stroke-linecap="round" opacity=".6"/>
    <path d="M49 44l-17 2m47-2l17 2M55 62l-18 7m36-7l18 7M64 90l-16 8m16-8l16 8" stroke="#222" stroke-width="2" stroke-linecap="round" opacity=".4"/>
  </g>
</svg>